<svg width="200" height="200" viewBox="0 0 200 200" fill="none" xmlns="http://www.w3.org/2000/svg">
<rect width="200" height="200" fill="#171717"/>
<path d="M89.28 85.68C89.28 74.3733 87.4133 66.08 83.68 60.8C79.9466 55.52 74.2133 52.88 66.48 52.88C63.76 52.88 61.1734 53.1733 58.7201 53.76C56.3201 54.3467 54.0001 55.3067 51.7601 56.64C49.5734 57.92 47.4401 59.6533 45.3601 61.84L44.4001 59.92C47.9201 56.1333 51.1467 53.0133 54.0801 50.56C57.0667 48.0533 59.8133 46.08 62.32 44.64C64.88 43.2 67.3067 42.1867 69.6001 41.6C71.9467 41.0133 74.24 40.72 76.48 40.72C83.36 40.72 89.2266 42.2933 94.08 45.44C98.9333 48.5867 102.64 53.0133 105.2 58.72C107.76 64.4267 109.04 71.2 109.04 79.04C109.04 89.0133 107.147 97.52 103.36 104.56C99.5733 111.6 94.3466 116.96 87.68 120.64C81.0666 124.32 73.4667 126.16 64.8801 126.16C61.7334 126.16 58.5334 125.92 55.2801 125.44C52.0801 125.013 48.96 124.347 45.92 123.44C42.88 122.48 40.0267 121.253 37.3601 119.76H49.68V155.12L61.84 157.6V159.84H20.4V157.6L30.8801 155.12V57.76C30.1867 57.28 29.36 56.72 28.4 56.08C27.4933 55.3867 26.3467 54.5333 24.96 53.52C23.6267 52.5067 21.9733 51.2533 20 49.76V48.08L49.0401 40H49.68V53.92V105.2C49.68 108.507 50.4267 111.413 51.9201 113.92C53.4667 116.427 55.5734 118.4 58.2401 119.84C60.9067 121.227 63.9201 121.92 67.2801 121.92C71.9201 121.92 75.8934 120.587 79.2001 117.92C82.5067 115.253 85.0133 111.253 86.72 105.92C88.4266 100.533 89.28 93.7867 89.28 85.68ZM114.707 139.36H180.307V145.12H114.707V139.36Z" fill="#FAFAFA"/>
</svg>
